<?xml version="1.0" encoding="UTF-8"?>
<svg version="1.1" xmlns="http://www.w3.org/2000/svg" viewBox="0 0 751 280" width="32" height="32">
<path d="M0 0 C247.83 0 495.66 0 751 0 C751 92.4 751 184.8 751 280 C503.17 280 255.34 280 0 280 C0 187.6 0 95.2 0 0 Z " fill="#FEFEFE" transform="translate(0,0)"/>
<path d="M0 0 C67.32 0 134.64 0 204 0 C208.54673367 20.46030151 208.54673367 20.46030151 210.04296875 27.57421875 C210.39300519 29.22660996 210.74327516 30.87895172 211.09375 32.53125 C211.27164063 33.37042969 211.44953125 34.20960937 211.6328125 35.07421875 C214.95397622 50.72110978 218.42097798 66.32536262 222.06112671 81.90097046 C225.01884694 94.57134534 227.80383106 107.27153366 230.5 120 C233.43313499 133.84395557 236.48213965 147.65394332 239.6875 161.4375 C239.97318848 162.66658585 239.97318848 162.66658585 240.26464844 163.92050171 C241.00654954 167.1115087 241.74869757 170.30245811 242.49130249 173.49330139 C245.8639826 188.0002891 249.05750878 202.54552717 252.15625 217.11328125 C252.7405451 219.8583122 253.32485479 222.60334004 253.90921021 225.34835815 C254.30126867 227.19098637 254.69293494 229.03369808 255.084198 230.87649536 C257.63434601 242.87560436 260.27540498 254.83472768 263.32421875 266.71923828 C263.54851562 267.6111084 263.7728125 268.50297852 264.00390625 269.421875 C264.19799072 270.17049805 264.3920752 270.91912109 264.59204102 271.69042969 C265 274 265 274 265 280 C177.55 280 90.1 280 0 280 C0 187.6 0 95.2 0 0 Z " fill="#3675BA" transform="translate(0,0)"/>
<path d="M0 0 C51.81 0 103.62 0 157 0 C157 92.4 157 184.8 157 280 C85.06 280 13.12 280 -61 280 C-59.72951617 272.37709704 -58.40380977 264.88961735 -56.71484375 257.3671875 C-56.4979892 256.38852219 -56.28113464 255.40985687 -56.05770874 254.40153503 C-55.59403302 252.3099711 -55.12901626 250.21870407 -54.66275024 248.12771606 C-53.41709648 242.54101266 -52.18131597 236.95212629 -50.9453125 231.36328125 C-50.57026329 229.66875069 -50.57026329 229.66875069 -50.18763733 227.93998718 C-47.8423789 217.32544414 -45.57185801 206.69558956 -43.3125 196.0625 C-40.51751292 182.9205352 -37.61254779 169.81068496 -34.57781982 156.72210693 C-31.53482768 143.577801 -28.72089617 130.38895216 -25.9375 117.1875 C-22.98139718 103.16748399 -19.93960358 89.18531059 -16.61743164 75.24682617 C-13.63699475 62.65450216 -10.96009616 49.99832615 -8.28295898 37.33862305 C-5.63804563 24.86096873 -2.82765349 12.44167537 0 0 Z " fill="#3575BA" transform="translate(594,0)"/>
<path d="M0 0 C33.99 0 67.98 0 103 0 C103 69.63 103 139.26 103 211 C69.01 211 35.02 211 0 211 C0 141.37 0 71.74 0 0 Z " fill="#FDFEFE" transform="translate(648,0)"/>
<path d="M0 0 C0.66 0 1.32 0 2 0 C4.77555361 9.52519536 7.50432743 19.05981344 10.0390625 28.65234375 C10.29855682 29.63340088 10.29855682 29.63340088 10.56329346 30.63427734 C11.41736089 33.86810753 12.26562779 37.10327395 13.10742188 40.34033203 C14.59739735 46.00934115 16.15615621 51.60549521 18.0546875 57.15234375 C19.6518913 61.8266659 20.90590367 66.49539284 22.06201172 71.29492188 C23.30568919 76.20748026 24.68364679 81.07814566 26.06640625 85.953125 C26.34769379 86.94501831 26.62898132 87.93691162 26.91879272 88.9588623 C27.79866322 92.05629836 28.68035913 95.15320983 29.5625 98.25 C30.44993486 101.36797523 31.33679411 104.48610984 32.22215271 107.60467529 C32.76960887 109.53280858 33.31825251 111.46060525 33.86830139 113.38800049 C35.34101475 118.57244897 36.71354029 123.76630208 38 129 C39.10130918 133.2579164 40.22237158 137.51046665 41.34912109 141.76171875 C41.69770288 143.07966215 42.04472683 144.39801863 42.39013672 145.71679688 C44.40901308 153.42278443 46.5747449 161.01846506 49.27001953 168.52050781 C50 171 50 171 50 175 C17.66 175 -14.68 175 -48 175 C-43.75092764 156.94144249 -43.75092764 156.94144249 -41.7734375 151.40234375 C-40.72388733 148.1423773 -39.93194737 144.82617836 -39.125 141.5 C-37.77011846 135.9294976 -36.28042215 130.42608295 -34.625 124.9375 C-32.57847079 118.14515384 -30.75929786 111.30954662 -29 104.4375 C-27.11767167 97.09449633 -25.08434322 89.84720271 -22.75170898 82.63549805 C-21.12993893 77.56803722 -19.83060094 72.44883522 -18.58935547 67.27954102 C-17.24951288 61.79177462 -15.65368288 56.40062874 -14 51 C-11.82315763 43.8775599 -9.89662211 36.75902155 -8.14453125 29.51953125 C-5.6907389 19.61399556 -2.78520327 9.81631507 0 0 Z " fill="#8FC641" transform="translate(398,105)"/>
<path d="M0 0 C20.46 0 40.92 0 62 0 C62 37.29 62 74.58 62 113 C41.54 113 21.08 113 0 113 C0 75.71 0 38.42 0 0 Z " fill="#FCFDFE" transform="translate(87,167)"/>
<path d="M0 0 C20.46 0 40.92 0 62 0 C62 32.34 62 64.68 62 98 C41.54 98 21.08 98 0 98 C0 65.66 0 33.32 0 0 Z " fill="#FCFDFE" transform="translate(87,0)"/>
<path d="M0 0 C24.09 0 48.18 0 73 0 C68.3674103 27.79553818 68.3674103 27.79553818 66 40.25 C65.74168577 41.61847169 65.48346819 42.98696162 65.2253418 44.35546875 C63.66290482 52.61749894 62.06581695 60.87235761 60.38085938 69.11035156 C59.40817464 73.87740323 58.49718639 78.65470664 57.60546875 83.4375 C55.81002081 93.06622939 53.93095576 102.67825036 52.05224609 112.29101562 C49.27457011 126.51028812 46.56781423 140.74107862 44 155 C42 154 42 154 41.19384766 151.953125 C40.93651855 151.06109375 40.67918945 150.1690625 40.4140625 149.25 C40.12499023 148.25685791 39.83591797 147.26371582 39.53808594 146.24047852 C39.23676758 145.17112061 38.93544922 144.1017627 38.625 143 C38.31336914 141.91452881 38.00173828 140.82905762 37.68066406 139.71069336 C35.52328098 132.10541288 33.60132547 124.47779401 31.921875 116.75390625 C31.25069666 114.0208453 30.5169466 111.4837641 29.60546875 108.8359375 C27.60773883 102.99551533 26.11425373 97.03382591 24.5625 91.0625 C20.68301603 76.31355493 16.51866847 61.65174059 12.30102539 46.99633789 C9.92209904 38.72933813 7.55456859 30.4599692 5.25 22.171875 C5.04909256 21.45002014 4.84818512 20.72816528 4.64118958 19.98443604 C0 3.22741177 0 3.22741177 0 0 Z " fill="#8FC642" transform="translate(440,0)"/>
<path d="M0 0 C24.09 0 48.18 0 73 0 C71.7331774 6.96752431 70.44316972 13.46957365 68.4375 20.1875 C67.90281331 22.0205907 67.36901966 23.85394204 66.8359375 25.6875 C66.54428711 26.68652344 66.25263672 27.68554688 65.95214844 28.71484375 C64.12194743 35.02950652 62.34295389 41.35867148 60.5625 47.6875 C60.27270264 48.71639847 60.27270264 48.71639847 59.97705078 49.76608276 C57.11008609 59.95099871 54.3293184 70.15637266 51.6027832 80.37988281 C49.09236178 89.75115117 46.43835498 99.07925091 43.75170898 108.40136719 C40.42323866 119.95186558 37.31783927 131.54886878 34.3125 143.1875 C33.83200195 145.0447168 33.83200195 145.0447168 33.34179688 146.93945312 C32.56055691 149.95947031 31.77997048 152.97965475 31 156 C30.34 156 29.68 156 29 156 C27.09252884 146.01291522 25.28012247 136.01052405 23.5 126 C20.72135255 110.3845802 17.79123947 94.81268857 14.6328125 79.26953125 C12.10360237 66.78322899 9.64964107 54.30324528 7.54833984 41.73632812 C5.93521506 32.2686425 3.9455187 22.88055718 1.9296875 13.49194336 C1.67960937 12.31510986 1.42953125 11.13827637 1.171875 9.92578125 C0.9459668 8.87817627 0.72005859 7.83057129 0.48730469 6.7512207 C0 4 0 4 0 0 Z " fill="#8FC642" transform="translate(285,0)"/>
</svg>